<?xml version="1.0" encoding="UTF-8"?>
<svg id="Layer_3" data-name="Layer 3" xmlns="http://www.w3.org/2000/svg" viewBox="0 0 424.68 367.18">
  <path d="M38.26,150.44c7.53,0,14.48,2.74,20.06,7.35s9.78,11.1,11.82,18.6c.31,1.14,1.05,2.19,2.02,2.95s2.14,1.23,3.33,1.23c.01.03,30.17.02,60.32,0,30.16-.01,60.32-.03,60.35,0,2.24,0,3.99-1.28,4.83-3s.77-3.88-.61-5.64c-11.87-14.75-18.09-32.59-18.64-50.73s4.58-36.59,15.41-52.53c.94-1.96.64-3.31-.38-4.36s-2.77-1.82-4.71-2.61c-14.41-6.02-19.75-18.81-17.62-30.38s11.74-21.93,27.23-23.08c7.03-.59,14.08,1.45,19.77,5.36s9.65,9.21,11.4,15.73c.2.73.39,1.47.65,2.18.37,1.02.79,1.88,1.33,2.51.76.88,1.78,1.32,3.28,1.14,1.93-.35,3.9-1.06,5.87-1.8s3.95-1.53,5.91-2.03c11.54-3.53,23.74-5.03,35.85-4.52s24.13,3.02,35.33,7.52c1.47.59,3.08,1.13,4.52,1.06s2.68-.73,3.42-2.56c.86-2.56,1.71-5.48,2.82-8.32,1.11-2.83,2.48-5.58,4.4-7.76,8.71-10.95,21.44-13.74,32.54-10.42,11.1,3.32,20.56,12.76,22.74,26.24,1.3,7.04.1,14.33-3.02,20.59s-8.16,11.5-14.53,14.42c-4.06,1.85-5.22,3.72-4.96,5.95s1.91,4.81,3.47,8.07c5.73,10.87,7.3,26.01,5.99,41.7-1.07,12.85-10.4,23.7-23.06,26.18-23.24,4.56-51.84,30.57-9.84,74.57,1.24,1.3,65.15,54.21,13.66,119.36-12.52,13.24-30.22,18.75-46.56,18.75h-154.14c-29.42,0-56.05-11.86-75.33-31.03-19.28-19.17-31.2-45.66-31.2-74.92v-28.67c0-1.72-.8-3.25-2.03-4.25s-2.87-1.47-4.56-1.06c-10.49,2.51-20.62-.68-28.1-7.35-7.49-6.66-12.34-16.79-12.27-28.14,0-10.03,3.72-19.11,9.74-25.68s14.33-10.64,23.52-10.64Z" fill="#30afcf" stroke="#070606" stroke-linecap="round" stroke-linejoin="round" stroke-width="10"/>
  <path d="M264.5,88.47c0,4.07,1.77,7.75,4.63,10.42s6.82,4.32,11.19,4.32,8.32-1.65,11.19-4.32,4.63-6.35,4.63-10.42-1.77-7.75-4.63-10.42-6.82-4.32-11.19-4.32-8.32,1.65-11.19,4.32-4.63,6.35-4.63,10.42Z" fill="#070606" stroke-width="0"/>
  <path d="M309.17,131.01c3.52-4.69,10.77-14.95,20.01-19.82,9.24-4.87,20.48-4.36,31.96,12.49,7.99,11.72,16.96,18.85,25.27,23.18s15.95,5.83,21.28,6.3c2.91.26,5.57,1.51,7.63,3.45s3.52,4.55,4.01,7.53c.93,5.63.28,12.57-5.56,18.67s-16.84,11.39-36.62,13.69c-30.85,3.6-52.95-5.97-64.79-19.84s-13.41-32.04-3.2-45.66Z" fill="#f7f733" stroke="#070606" stroke-linecap="round" stroke-linejoin="round" stroke-width="10"/>
  <path d="M196.58,314.68c-24.76,3.5-49.6-3.73-69.74-18.26-20.14-14.53-35.6-36.35-41.6-62.04" fill="none" stroke="#000" stroke-linecap="round" stroke-linejoin="round" stroke-width="10"/>
  <path d="M242.08,268.91c-8.05,12.44-22.26,20.57-38.72,23.66s-35.19,1.15-52.28-6.57" fill="none" stroke="#000" stroke-linecap="round" stroke-linejoin="round" stroke-width="10"/>
  <path d="M227.59,227.01c-15.38,17.03-38.95,26.15-64.63,27.14s-53.5-6.16-77.36-21.67" fill="none" stroke="#000" stroke-linecap="round" stroke-linejoin="round" stroke-width="10"/>
</svg>