<?xml version="1.0" encoding="UTF-8"?>
<svg id="Layer_3" data-name="Layer 3" xmlns="http://www.w3.org/2000/svg" viewBox="0 0 454.09 413.3">
  <defs>
    <style>
      .cls-1 {
        fill: #b59a13;
      }

      .cls-1, .cls-2 {
        stroke: #070606;
      }

      .cls-1, .cls-2, .cls-3 {
        stroke-linecap: round;
        stroke-linejoin: round;
        stroke-width: 10px;
      }

      .cls-2 {
        fill: #30afcf;
      }

      .cls-4 {
        fill: #070606;
        stroke-width: 0px;
      }

      .cls-3 {
        fill: none;
        stroke: #000;
      }
    </style>
  </defs>
  <path class="cls-2" d="M39.33,154.1c15.55,0,28.68,11.22,32.9,26.6.64,2.34,3.06,4.29,5.52,4.29.03.07,124.47-.05,124.53,0,4.63,0,7.21-5.26,4.36-8.86-24.49-30.24-25.69-73.17-3.33-105.87,1.95-4.02-1.24-5.51-5.25-7.15-29.74-12.34-22.05-52.45,9.91-54.81,14.5-1.2,29.1,8.34,32.38,22.53,1,3.28,2.1,5.45,5.2,5.08,3.99-.71,8.11-2.91,12.15-3.93,23.83-7.23,50.34-6.15,73.45,3.08,3.03,1.2,6.68,2.21,8.19-1.53,1.78-5.24,3.5-12,7.45-16.49,17.98-22.46,52.57-11.42,57.05,16.22,2.68,14.43-4.97,29.9-18.12,35.9-8.38,3.79-4.76,7.69-1.54,14.38,7.7,15.8,10.19,33.86,7.52,51.13-.34,2.18.76,4.36,2.7,5.47,9.36,5.34,18.15,7.21,24.13,7.82,6.02.61,10.94,5.15,11.85,11.06,4.64,25.91-35.7,34.05-68.18,31.04-1.2-.15-2.38.14-3.43.73-3.2,1.82-7.77,2.78-8,6.14-.52,7.7,29.72,19.97,33.86,25.37,29.99,23.78,21.58,67.8,21.58,67.8,0,0-10.13,81.1-83.76,81.1h-159.07c-60.72,0-109.94-48.63-109.94-108.62v-29.39c0-3.54-3.31-6.28-6.79-5.45-21.65,5.16-41.8-13.11-41.67-36.38,0-20.57,15.37-37.24,34.33-37.24Z"/>
  <ellipse class="cls-4" cx="214.98" cy="40.19" rx="13.36" ry="12.15"/>
  <ellipse class="cls-4" cx="298" cy="83.51" rx="14.92" ry="14.74"/>
  <path class="cls-1" d="M338.58,127.33c7.24-9.63,29.91-42.18,52.42-6.66,15.65,24.7,35.6,30.38,46.3,31.55,5.84.64,10.63,5.42,11.52,11.64,1.68,11.75-3.14,28.85-43.01,32.92-62.19,6.34-88.26-41.47-67.22-69.46Z"/>
  <ellipse class="cls-4" cx="376.75" cy="40.19" rx="13.5" ry="13.15"/>
  <path class="cls-3" d="M228.34,321.19c-53.68,12.16-111.36-25.54-128.95-84.29"/>
  <path class="cls-3" d="M270.99,248.37c-42.06,38.89-118.71,32.75-171.38-13.71"/>
  <path class="cls-3" d="M254.77,216.76c-30.77,42.09-100.17,50.1-155.15,17.91"/>
</svg>