<?xml version="1.0" encoding="UTF-8"?>
<svg id="Layer_1" data-name="Layer 1" xmlns="http://www.w3.org/2000/svg" viewBox="0 0 603.05 648.75">
  <defs>
    <style>
      .cls-1 {
        fill: none;
      }

      .cls-1, .cls-2 {
        stroke-width: 0px;
      }

      .cls-2 {
        fill: #f7f733;
      }
    </style>
  </defs>
  <g>
    <rect class="cls-1" x="49.92" y="13.6" width="173.84" height="230.46"/>
    <path class="cls-2" d="M60.47,10.29l-5.47,3.28c-1.61.96-3.56-.54-3.04-2.34l2.27-7.86c.14-.48.1-1.01-.12-1.46-.58-1.18-1.96-1.77-3.21-1.4-.49.15-.9.49-1.16.94l-4.02,7c-.93,1.63-3.38,1.26-3.8-.57l-1.43-6.28c-.36-1.56-2.3-2.16-3.43-1.03-.57.56-.9,1.38-.79,2.28l2.33,20.05c.43,3.7,4.7,5.54,7.69,3.32l16.2-12.04c.7-.52,1.06-1.26,1.11-2.02.12-1.65-1.7-2.74-3.12-1.89Z"/>
    <path class="cls-2" d="M118.42,10.29l-5.47,3.28c-1.61.96-3.56-.54-3.04-2.34l2.27-7.86c.14-.48.1-1.01-.12-1.46-.58-1.18-1.96-1.77-3.21-1.4-.49.15-.9.49-1.16.94l-4.02,7c-.93,1.63-3.38,1.26-3.8-.57l-1.43-6.28c-.36-1.56-2.3-2.16-3.43-1.03-.57.56-.9,1.38-.79,2.28l2.33,20.05c.43,3.7,4.7,5.54,7.69,3.32l16.2-12.04c.7-.52,1.06-1.26,1.11-2.02.12-1.65-1.7-2.74-3.12-1.89Z"/>
    <path class="cls-2" d="M176.36,10.29l-5.47,3.28c-1.61.96-3.56-.54-3.04-2.34l2.27-7.86c.14-.48.1-1.01-.12-1.46-.58-1.18-1.96-1.77-3.21-1.4-.49.15-.9.49-1.16.94l-4.02,7c-.93,1.63-3.38,1.26-3.8-.57l-1.43-6.28c-.36-1.56-2.3-2.16-3.43-1.03-.57.56-.9,1.38-.79,2.28l2.33,20.05c.43,3.7,4.7,5.54,7.69,3.32l16.2-12.04c.7-.52,1.06-1.26,1.11-2.02.12-1.65-1.7-2.74-3.12-1.89Z"/>
    <path class="cls-2" d="M234.31,10.29l-5.47,3.28c-1.61.96-3.56-.54-3.04-2.34l2.27-7.86c.14-.48.1-1.01-.12-1.46-.58-1.18-1.96-1.77-3.21-1.4-.49.15-.9.49-1.16.94l-4.02,7c-.93,1.63-3.38,1.26-3.8-.57l-1.43-6.28c-.36-1.56-2.3-2.16-3.43-1.03-.57.56-.9,1.38-.79,2.28l2.33,20.05c.43,3.7,4.7,5.54,7.69,3.32l16.2-12.04c.7-.52,1.06-1.26,1.11-2.02.12-1.65-1.7-2.74-3.12-1.89Z"/>
    <path class="cls-2" d="M74.96,67.91l-5.47,3.28c-1.61.96-3.56-.54-3.04-2.34l2.27-7.86c.14-.48.1-1.01-.12-1.46-.58-1.18-1.96-1.77-3.21-1.4-.49.15-.9.49-1.16.94l-4.02,7c-.93,1.63-3.38,1.26-3.8-.57l-1.43-6.28c-.36-1.56-2.3-2.16-3.43-1.03-.57.56-.9,1.38-.79,2.28l2.33,20.05c.43,3.7,4.7,5.54,7.69,3.32l16.2-12.04c.7-.52,1.06-1.26,1.11-2.02.12-1.65-1.7-2.74-3.12-1.89Z"/>
    <path class="cls-2" d="M132.9,67.91l-5.47,3.28c-1.61.96-3.56-.54-3.04-2.34l2.27-7.86c.14-.48.1-1.01-.12-1.46-.58-1.18-1.96-1.77-3.21-1.4-.49.15-.9.49-1.16.94l-4.02,7c-.93,1.63-3.38,1.26-3.8-.57l-1.43-6.28c-.36-1.56-2.3-2.16-3.43-1.03-.57.56-.9,1.38-.79,2.28l2.33,20.05c.43,3.7,4.7,5.54,7.69,3.32l16.2-12.04c.7-.52,1.06-1.26,1.11-2.02.12-1.65-1.7-2.74-3.12-1.89Z"/>
    <path class="cls-2" d="M190.85,67.91l-5.47,3.28c-1.61.96-3.56-.54-3.04-2.34l2.27-7.86c.14-.48.1-1.01-.12-1.46-.58-1.18-1.96-1.77-3.21-1.4-.49.15-.9.49-1.16.94l-4.02,7c-.93,1.63-3.38,1.26-3.8-.57l-1.43-6.28c-.36-1.56-2.3-2.16-3.43-1.03-.57.56-.9,1.38-.79,2.28l2.33,20.05c.43,3.7,4.7,5.54,7.69,3.32l16.2-12.04c.7-.52,1.06-1.26,1.11-2.02.12-1.65-1.7-2.74-3.12-1.89Z"/>
    <path class="cls-2" d="M89.44,125.52l-5.47,3.28c-1.61.96-3.56-.54-3.04-2.34l2.27-7.86c.14-.48.1-1.01-.12-1.46-.58-1.18-1.96-1.77-3.21-1.4-.49.15-.9.49-1.16.94l-4.02,7c-.93,1.63-3.38,1.26-3.8-.57l-1.43-6.28c-.36-1.56-2.3-2.16-3.43-1.03-.57.56-.9,1.38-.79,2.28l2.33,20.05c.43,3.7,4.7,5.54,7.69,3.32l16.2-12.04c.7-.52,1.06-1.26,1.11-2.02.12-1.65-1.7-2.74-3.12-1.89Z"/>
    <path class="cls-2" d="M147.39,125.52l-5.47,3.28c-1.61.96-3.56-.54-3.04-2.34l2.27-7.86c.14-.48.1-1.01-.12-1.46-.58-1.18-1.96-1.77-3.21-1.4-.49.15-.9.49-1.16.94l-4.02,7c-.93,1.63-3.38,1.26-3.8-.57l-1.43-6.28c-.36-1.56-2.3-2.16-3.43-1.03-.57.56-.9,1.38-.79,2.28l2.33,20.05c.43,3.7,4.7,5.54,7.69,3.32l16.2-12.04c.7-.52,1.06-1.26,1.11-2.02.12-1.65-1.7-2.74-3.12-1.89Z"/>
    <path class="cls-2" d="M205.33,125.52l-5.47,3.28c-1.61.96-3.56-.54-3.04-2.34l2.27-7.86c.14-.48.1-1.01-.12-1.46-.58-1.18-1.96-1.77-3.21-1.4-.49.15-.9.49-1.16.94l-4.02,7c-.93,1.63-3.38,1.26-3.8-.57l-1.43-6.28c-.36-1.56-2.3-2.16-3.43-1.03-.57.56-.9,1.38-.79,2.28l2.33,20.05c.43,3.7,4.7,5.54,7.69,3.32l16.2-12.04c.7-.52,1.06-1.26,1.11-2.02.12-1.65-1.7-2.74-3.12-1.89Z"/>
    <path class="cls-2" d="M103.93,183.13l-5.47,3.28c-1.61.96-3.56-.54-3.04-2.34l2.27-7.86c.14-.48.1-1.01-.12-1.46-.58-1.18-1.96-1.77-3.21-1.4-.49.15-.9.49-1.16.94l-4.02,7c-.93,1.63-3.38,1.26-3.8-.57l-1.43-6.28c-.36-1.56-2.3-2.16-3.43-1.03-.57.56-.9,1.38-.79,2.28l2.33,20.05c.43,3.7,4.7,5.54,7.69,3.32l16.2-12.04c.7-.52,1.06-1.26,1.11-2.02.12-1.65-1.7-2.74-3.12-1.89Z"/>
    <path class="cls-2" d="M161.87,183.13l-5.47,3.28c-1.61.96-3.56-.54-3.04-2.34l2.27-7.86c.14-.48.1-1.01-.12-1.46-.58-1.18-1.96-1.77-3.21-1.4-.49.15-.9.49-1.16.94l-4.02,7c-.93,1.63-3.38,1.26-3.8-.57l-1.43-6.28c-.36-1.56-2.3-2.16-3.43-1.03-.57.56-.9,1.38-.79,2.28l2.33,20.05c.43,3.7,4.7,5.54,7.69,3.32l16.2-12.04c.7-.52,1.06-1.26,1.11-2.02.12-1.65-1.7-2.74-3.12-1.89Z"/>
    <path class="cls-2" d="M219.82,183.13l-5.47,3.28c-1.61.96-3.56-.54-3.04-2.34l2.27-7.86c.14-.48.1-1.01-.12-1.46-.58-1.18-1.96-1.77-3.21-1.4-.49.15-.9.49-1.16.94l-4.02,7c-.93,1.63-3.38,1.26-3.8-.57l-1.43-6.28c-.36-1.56-2.3-2.16-3.43-1.03-.57.56-.9,1.38-.79,2.28l2.33,20.05c.43,3.7,4.7,5.54,7.69,3.32l16.2-12.04c.7-.52,1.06-1.26,1.11-2.02.12-1.65-1.7-2.74-3.12-1.89Z"/>
    <path class="cls-2" d="M60.47,240.75l-5.47,3.28c-1.61.96-3.56-.54-3.04-2.34l2.27-7.86c.14-.48.1-1.01-.12-1.46-.58-1.18-1.96-1.77-3.21-1.4-.49.15-.9.49-1.16.94l-4.02,7c-.93,1.63-3.38,1.26-3.8-.57l-1.43-6.28c-.36-1.56-2.3-2.16-3.43-1.03-.57.56-.9,1.38-.79,2.28l2.33,20.05c.43,3.7,4.7,5.54,7.69,3.32l16.2-12.04c.7-.52,1.06-1.26,1.11-2.02.12-1.65-1.7-2.74-3.12-1.89Z"/>
    <path class="cls-2" d="M118.42,240.75l-5.47,3.28c-1.61.96-3.56-.54-3.04-2.34l2.27-7.86c.14-.48.1-1.01-.12-1.46-.58-1.18-1.96-1.77-3.21-1.4-.49.15-.9.49-1.16.94l-4.02,7c-.93,1.63-3.38,1.26-3.8-.57l-1.43-6.28c-.36-1.56-2.3-2.16-3.43-1.03-.57.56-.9,1.38-.79,2.28l2.33,20.05c.43,3.7,4.7,5.54,7.69,3.32l16.2-12.04c.7-.52,1.06-1.26,1.11-2.02.12-1.65-1.7-2.74-3.12-1.89Z"/>
    <path class="cls-2" d="M176.36,240.75l-5.47,3.28c-1.61.96-3.56-.54-3.04-2.34l2.27-7.86c.14-.48.1-1.01-.12-1.46-.58-1.18-1.96-1.77-3.21-1.4-.49.15-.9.49-1.16.94l-4.02,7c-.93,1.63-3.38,1.26-3.8-.57l-1.43-6.28c-.36-1.56-2.3-2.16-3.43-1.03-.57.56-.9,1.38-.79,2.28l2.33,20.05c.43,3.7,4.7,5.54,7.69,3.32l16.2-12.04c.7-.52,1.06-1.26,1.11-2.02.12-1.65-1.7-2.74-3.12-1.89Z"/>
    <path class="cls-2" d="M234.31,240.75l-5.47,3.28c-1.61.96-3.56-.54-3.04-2.34l2.27-7.86c.14-.48.1-1.01-.12-1.46-.58-1.18-1.96-1.77-3.21-1.4-.49.15-.9.49-1.16.94l-4.02,7c-.93,1.63-3.38,1.26-3.8-.57l-1.43-6.28c-.36-1.56-2.3-2.16-3.43-1.03-.57.56-.9,1.38-.79,2.28l2.33,20.05c.43,3.7,4.7,5.54,7.69,3.32l16.2-12.04c.7-.52,1.06-1.26,1.11-2.02.12-1.65-1.7-2.74-3.12-1.89Z"/>
  </g>
  <g>
    <rect class="cls-1" x="237.66" y="72.18" width="173.84" height="230.46"/>
    <path class="cls-2" d="M248.21,68.87l-5.47,3.28c-1.61.96-3.56-.54-3.04-2.34l2.27-7.86c.14-.48.1-1.01-.12-1.46-.58-1.18-1.96-1.77-3.21-1.4-.49.15-.9.49-1.16.94l-4.02,7c-.93,1.63-3.38,1.26-3.8-.57l-1.43-6.28c-.36-1.56-2.3-2.16-3.43-1.03-.57.56-.9,1.38-.79,2.28l2.33,20.05c.43,3.7,4.7,5.54,7.69,3.32l16.2-12.04c.7-.52,1.06-1.26,1.11-2.02.12-1.65-1.7-2.74-3.12-1.89Z"/>
    <path class="cls-2" d="M306.15,68.87l-5.47,3.28c-1.61.96-3.56-.54-3.04-2.34l2.27-7.86c.14-.48.1-1.01-.12-1.46-.58-1.18-1.96-1.77-3.21-1.4-.49.15-.9.49-1.16.94l-4.02,7c-.93,1.63-3.38,1.26-3.8-.57l-1.43-6.28c-.36-1.56-2.3-2.16-3.43-1.03-.57.56-.9,1.38-.79,2.28l2.33,20.05c.43,3.7,4.7,5.54,7.69,3.32l16.2-12.04c.7-.52,1.06-1.26,1.11-2.02.12-1.65-1.7-2.74-3.12-1.89Z"/>
    <path class="cls-2" d="M364.1,68.87l-5.47,3.28c-1.61.96-3.56-.54-3.04-2.34l2.27-7.86c.14-.48.1-1.01-.12-1.46-.58-1.18-1.96-1.77-3.21-1.4-.49.15-.9.49-1.16.94l-4.02,7c-.93,1.63-3.38,1.26-3.8-.57l-1.43-6.28c-.36-1.56-2.3-2.16-3.43-1.03-.57.56-.9,1.38-.79,2.28l2.33,20.05c.43,3.7,4.7,5.54,7.69,3.32l16.2-12.04c.7-.52,1.06-1.26,1.11-2.02.12-1.65-1.7-2.74-3.12-1.89Z"/>
    <path class="cls-2" d="M422.04,68.87l-5.47,3.28c-1.61.96-3.56-.54-3.04-2.34l2.27-7.86c.14-.48.1-1.01-.12-1.46-.58-1.18-1.96-1.77-3.21-1.4-.49.15-.9.49-1.16.94l-4.02,7c-.93,1.63-3.38,1.26-3.8-.57l-1.43-6.28c-.36-1.56-2.3-2.16-3.43-1.03-.57.56-.9,1.38-.79,2.28l2.33,20.05c.43,3.7,4.7,5.54,7.69,3.32l16.2-12.04c.7-.52,1.06-1.26,1.11-2.02.12-1.65-1.7-2.74-3.12-1.89Z"/>
    <path class="cls-2" d="M262.69,126.48l-5.47,3.28c-1.61.96-3.56-.54-3.04-2.34l2.27-7.86c.14-.48.1-1.01-.12-1.46-.58-1.18-1.96-1.77-3.21-1.4-.49.15-.9.49-1.16.94l-4.02,7c-.93,1.63-3.38,1.26-3.8-.57l-1.43-6.28c-.36-1.56-2.3-2.16-3.43-1.03-.57.56-.9,1.38-.79,2.28l2.33,20.05c.43,3.7,4.7,5.54,7.69,3.32l16.2-12.04c.7-.52,1.06-1.26,1.11-2.02.12-1.65-1.7-2.74-3.12-1.89Z"/>
    <path class="cls-2" d="M320.64,126.48l-5.47,3.28c-1.61.96-3.56-.54-3.04-2.34l2.27-7.86c.14-.48.1-1.01-.12-1.46-.58-1.18-1.96-1.77-3.21-1.4-.49.15-.9.49-1.16.94l-4.02,7c-.93,1.63-3.38,1.26-3.8-.57l-1.43-6.28c-.36-1.56-2.3-2.16-3.43-1.03-.57.56-.9,1.38-.79,2.28l2.33,20.05c.43,3.7,4.7,5.54,7.69,3.32l16.2-12.04c.7-.52,1.06-1.26,1.11-2.02.12-1.65-1.7-2.74-3.12-1.89Z"/>
    <path class="cls-2" d="M378.59,126.48l-5.47,3.28c-1.61.96-3.56-.54-3.04-2.34l2.27-7.86c.14-.48.1-1.01-.12-1.46-.58-1.18-1.96-1.77-3.21-1.4-.49.15-.9.49-1.16.94l-4.02,7c-.93,1.63-3.38,1.26-3.8-.57l-1.43-6.28c-.36-1.56-2.3-2.16-3.43-1.03-.57.56-.9,1.38-.79,2.28l2.33,20.05c.43,3.7,4.7,5.54,7.69,3.32l16.2-12.04c.7-.52,1.06-1.26,1.11-2.02.12-1.65-1.7-2.74-3.12-1.89Z"/>
    <path class="cls-2" d="M277.18,184.1l-5.47,3.28c-1.61.96-3.56-.54-3.04-2.34l2.27-7.86c.14-.48.1-1.01-.12-1.46-.58-1.18-1.96-1.77-3.21-1.4-.49.15-.9.49-1.16.94l-4.02,7c-.93,1.63-3.38,1.26-3.8-.57l-1.43-6.28c-.36-1.56-2.3-2.16-3.43-1.03-.57.56-.9,1.38-.79,2.28l2.33,20.05c.43,3.7,4.7,5.54,7.69,3.32l16.2-12.04c.7-.52,1.06-1.26,1.11-2.02.12-1.65-1.7-2.74-3.12-1.89Z"/>
    <path class="cls-2" d="M335.13,184.1l-5.47,3.28c-1.61.96-3.56-.54-3.04-2.34l2.27-7.86c.14-.48.1-1.01-.12-1.46-.58-1.18-1.96-1.77-3.21-1.4-.49.15-.9.49-1.16.94l-4.02,7c-.93,1.63-3.38,1.26-3.8-.57l-1.43-6.28c-.36-1.56-2.3-2.16-3.43-1.03-.57.56-.9,1.38-.79,2.28l2.33,20.05c.43,3.7,4.7,5.54,7.69,3.32l16.2-12.04c.7-.52,1.06-1.26,1.11-2.02.12-1.65-1.7-2.74-3.12-1.89Z"/>
    <path class="cls-2" d="M393.07,184.1l-5.47,3.28c-1.61.96-3.56-.54-3.04-2.34l2.27-7.86c.14-.48.1-1.01-.12-1.46-.58-1.18-1.96-1.77-3.21-1.4-.49.15-.9.49-1.16.94l-4.02,7c-.93,1.63-3.38,1.26-3.8-.57l-1.43-6.28c-.36-1.56-2.3-2.16-3.43-1.03-.57.56-.9,1.38-.79,2.28l2.33,20.05c.43,3.7,4.7,5.54,7.69,3.32l16.2-12.04c.7-.52,1.06-1.26,1.11-2.02.12-1.65-1.7-2.74-3.12-1.89Z"/>
    <path class="cls-2" d="M291.67,241.71l-5.47,3.28c-1.61.96-3.56-.54-3.04-2.34l2.27-7.86c.14-.48.1-1.01-.12-1.46-.58-1.18-1.96-1.77-3.21-1.4-.49.15-.9.49-1.16.94l-4.02,7c-.93,1.63-3.38,1.26-3.8-.57l-1.43-6.28c-.36-1.56-2.3-2.16-3.43-1.03-.57.56-.9,1.38-.79,2.28l2.33,20.05c.43,3.7,4.7,5.54,7.69,3.32l16.2-12.04c.7-.52,1.06-1.26,1.11-2.02.12-1.65-1.7-2.74-3.12-1.89Z"/>
    <path class="cls-2" d="M349.61,241.71l-5.47,3.28c-1.61.96-3.56-.54-3.04-2.34l2.27-7.86c.14-.48.1-1.01-.12-1.46-.58-1.18-1.96-1.77-3.21-1.4-.49.15-.9.49-1.16.94l-4.02,7c-.93,1.63-3.38,1.26-3.8-.57l-1.43-6.28c-.36-1.56-2.3-2.16-3.43-1.03-.57.56-.9,1.38-.79,2.28l2.33,20.05c.43,3.7,4.7,5.54,7.69,3.32l16.2-12.04c.7-.52,1.06-1.26,1.11-2.02.12-1.65-1.7-2.74-3.12-1.89Z"/>
    <path class="cls-2" d="M407.56,241.71l-5.47,3.28c-1.61.96-3.56-.54-3.04-2.34l2.27-7.86c.14-.48.1-1.01-.12-1.46-.58-1.18-1.96-1.77-3.21-1.4-.49.15-.9.49-1.16.94l-4.02,7c-.93,1.63-3.38,1.26-3.8-.57l-1.43-6.28c-.36-1.56-2.3-2.16-3.43-1.03-.57.56-.9,1.38-.79,2.28l2.33,20.05c.43,3.7,4.7,5.54,7.69,3.32l16.2-12.04c.7-.52,1.06-1.26,1.11-2.02.12-1.65-1.7-2.74-3.12-1.89Z"/>
    <path class="cls-2" d="M248.21,299.33l-5.47,3.28c-1.61.96-3.56-.54-3.04-2.34l2.27-7.86c.14-.48.1-1.01-.12-1.46-.58-1.18-1.96-1.77-3.21-1.4-.49.15-.9.49-1.16.94l-4.02,7c-.93,1.63-3.38,1.26-3.8-.57l-1.43-6.28c-.36-1.56-2.3-2.16-3.43-1.03-.57.56-.9,1.38-.79,2.28l2.33,20.05c.43,3.7,4.7,5.54,7.69,3.32l16.2-12.04c.7-.52,1.06-1.26,1.11-2.02.12-1.65-1.7-2.74-3.12-1.89Z"/>
    <path class="cls-2" d="M306.15,299.33l-5.47,3.28c-1.61.96-3.56-.54-3.04-2.34l2.27-7.86c.14-.48.1-1.01-.12-1.46-.58-1.18-1.96-1.77-3.21-1.4-.49.15-.9.49-1.16.94l-4.02,7c-.93,1.63-3.38,1.26-3.8-.57l-1.43-6.28c-.36-1.56-2.3-2.16-3.43-1.03-.57.56-.9,1.38-.79,2.28l2.33,20.05c.43,3.7,4.7,5.54,7.69,3.32l16.2-12.04c.7-.52,1.06-1.26,1.11-2.02.12-1.65-1.7-2.74-3.12-1.89Z"/>
    <path class="cls-2" d="M364.1,299.33l-5.47,3.28c-1.61.96-3.56-.54-3.04-2.34l2.27-7.86c.14-.48.1-1.01-.12-1.46-.58-1.18-1.96-1.77-3.21-1.4-.49.15-.9.49-1.16.94l-4.02,7c-.93,1.63-3.38,1.26-3.8-.57l-1.43-6.28c-.36-1.56-2.3-2.16-3.43-1.03-.57.56-.9,1.38-.79,2.28l2.33,20.05c.43,3.7,4.7,5.54,7.69,3.32l16.2-12.04c.7-.52,1.06-1.26,1.11-2.02.12-1.65-1.7-2.74-3.12-1.89Z"/>
    <path class="cls-2" d="M422.04,299.33l-5.47,3.28c-1.61.96-3.56-.54-3.04-2.34l2.27-7.86c.14-.48.1-1.01-.12-1.46-.58-1.18-1.96-1.77-3.21-1.4-.49.15-.9.49-1.16.94l-4.02,7c-.93,1.63-3.38,1.26-3.8-.57l-1.43-6.28c-.36-1.56-2.3-2.16-3.43-1.03-.57.56-.9,1.38-.79,2.28l2.33,20.05c.43,3.7,4.7,5.54,7.69,3.32l16.2-12.04c.7-.52,1.06-1.26,1.11-2.02.12-1.65-1.7-2.74-3.12-1.89Z"/>
  </g>
  <g>
    <rect class="cls-1" x="13.68" y="302.33" width="173.84" height="230.46"/>
    <path class="cls-2" d="M24.23,299.03l-5.47,3.28c-1.61.96-3.56-.54-3.04-2.34l2.27-7.86c.14-.48.1-1.01-.12-1.46-.58-1.18-1.96-1.77-3.21-1.4-.49.15-.9.49-1.16.94l-4.02,7c-.93,1.63-3.38,1.26-3.8-.57l-1.43-6.28c-.36-1.56-2.3-2.16-3.43-1.03-.57.56-.9,1.38-.79,2.28l2.33,20.05c.43,3.7,4.7,5.54,7.69,3.32l16.2-12.04c.7-.52,1.06-1.26,1.11-2.02.12-1.65-1.7-2.74-3.12-1.89Z"/>
    <path class="cls-2" d="M82.17,299.03l-5.47,3.28c-1.61.96-3.56-.54-3.04-2.34l2.27-7.86c.14-.48.1-1.01-.12-1.46-.58-1.18-1.96-1.77-3.21-1.4-.49.15-.9.49-1.16.94l-4.02,7c-.93,1.63-3.38,1.26-3.8-.57l-1.43-6.28c-.36-1.56-2.3-2.16-3.43-1.03-.57.56-.9,1.38-.79,2.28l2.33,20.05c.43,3.7,4.7,5.54,7.69,3.32l16.2-12.04c.7-.52,1.06-1.26,1.11-2.02.12-1.65-1.7-2.74-3.12-1.89Z"/>
    <path class="cls-2" d="M140.12,299.03l-5.47,3.28c-1.61.96-3.56-.54-3.04-2.34l2.27-7.86c.14-.48.1-1.01-.12-1.46-.58-1.18-1.96-1.77-3.21-1.4-.49.15-.9.49-1.16.94l-4.02,7c-.93,1.63-3.38,1.26-3.8-.57l-1.43-6.28c-.36-1.56-2.3-2.16-3.43-1.03-.57.56-.9,1.38-.79,2.28l2.33,20.05c.43,3.7,4.7,5.54,7.69,3.32l16.2-12.04c.7-.52,1.06-1.26,1.11-2.02.12-1.65-1.7-2.74-3.12-1.89Z"/>
    <path class="cls-2" d="M198.06,299.03l-5.47,3.28c-1.61.96-3.56-.54-3.04-2.34l2.27-7.86c.14-.48.1-1.01-.12-1.46-.58-1.18-1.96-1.77-3.21-1.4-.49.15-.9.49-1.16.94l-4.02,7c-.93,1.63-3.38,1.26-3.8-.57l-1.43-6.28c-.36-1.56-2.3-2.16-3.43-1.03-.57.56-.9,1.38-.79,2.28l2.33,20.05c.43,3.7,4.7,5.54,7.69,3.32l16.2-12.04c.7-.52,1.06-1.26,1.11-2.02.12-1.65-1.7-2.74-3.12-1.89Z"/>
    <path class="cls-2" d="M38.71,356.64l-5.47,3.28c-1.61.96-3.56-.54-3.04-2.34l2.27-7.86c.14-.48.1-1.01-.12-1.46-.58-1.18-1.96-1.77-3.21-1.4-.49.15-.9.49-1.16.94l-4.02,7c-.93,1.63-3.38,1.26-3.8-.57l-1.43-6.28c-.36-1.56-2.3-2.16-3.43-1.03-.57.56-.9,1.38-.79,2.28l2.33,20.05c.43,3.7,4.7,5.54,7.69,3.32l16.2-12.04c.7-.52,1.06-1.26,1.11-2.02.12-1.65-1.7-2.74-3.12-1.89Z"/>
    <path class="cls-2" d="M96.66,356.64l-5.47,3.28c-1.61.96-3.56-.54-3.04-2.34l2.27-7.86c.14-.48.1-1.01-.12-1.46-.58-1.18-1.96-1.77-3.21-1.4-.49.15-.9.49-1.16.94l-4.02,7c-.93,1.63-3.38,1.26-3.8-.57l-1.43-6.28c-.36-1.56-2.3-2.16-3.43-1.03-.57.56-.9,1.38-.79,2.28l2.33,20.05c.43,3.7,4.7,5.54,7.69,3.32l16.2-12.04c.7-.52,1.06-1.26,1.11-2.02.12-1.65-1.7-2.74-3.12-1.89Z"/>
    <path class="cls-2" d="M154.61,356.64l-5.47,3.28c-1.61.96-3.56-.54-3.04-2.34l2.27-7.86c.14-.48.1-1.01-.12-1.46-.58-1.18-1.96-1.77-3.21-1.4-.49.15-.9.49-1.16.94l-4.02,7c-.93,1.63-3.38,1.26-3.8-.57l-1.43-6.28c-.36-1.56-2.3-2.16-3.43-1.03-.57.56-.9,1.38-.79,2.28l2.33,20.05c.43,3.7,4.7,5.54,7.69,3.32l16.2-12.04c.7-.52,1.06-1.26,1.11-2.02.12-1.65-1.7-2.74-3.12-1.89Z"/>
    <path class="cls-2" d="M53.2,414.25l-5.47,3.28c-1.61.96-3.56-.54-3.04-2.34l2.27-7.86c.14-.48.1-1.01-.12-1.46-.58-1.18-1.96-1.77-3.21-1.4-.49.15-.9.49-1.16.94l-4.02,7c-.93,1.63-3.38,1.26-3.8-.57l-1.43-6.28c-.36-1.56-2.3-2.16-3.43-1.03-.57.56-.9,1.38-.79,2.28l2.33,20.05c.43,3.7,4.7,5.54,7.69,3.32l16.2-12.04c.7-.52,1.06-1.26,1.11-2.02.12-1.65-1.7-2.74-3.12-1.89Z"/>
    <path class="cls-2" d="M111.15,414.25l-5.47,3.28c-1.61.96-3.56-.54-3.04-2.34l2.27-7.86c.14-.48.1-1.01-.12-1.46-.58-1.18-1.96-1.77-3.21-1.4-.49.15-.9.49-1.16.94l-4.02,7c-.93,1.63-3.38,1.26-3.8-.57l-1.43-6.28c-.36-1.56-2.3-2.16-3.43-1.03-.57.56-.9,1.38-.79,2.28l2.33,20.05c.43,3.7,4.7,5.54,7.69,3.32l16.2-12.04c.7-.52,1.06-1.26,1.11-2.02.12-1.65-1.7-2.74-3.12-1.89Z"/>
    <path class="cls-2" d="M169.09,414.25l-5.47,3.28c-1.61.96-3.56-.54-3.04-2.34l2.27-7.86c.14-.48.1-1.01-.12-1.46-.58-1.18-1.96-1.77-3.21-1.4-.49.15-.9.49-1.16.94l-4.02,7c-.93,1.63-3.38,1.26-3.8-.57l-1.43-6.28c-.36-1.56-2.3-2.16-3.43-1.03-.57.56-.9,1.38-.79,2.28l2.33,20.05c.43,3.7,4.7,5.54,7.69,3.32l16.2-12.04c.7-.52,1.06-1.26,1.11-2.02.12-1.65-1.7-2.74-3.12-1.89Z"/>
    <path class="cls-2" d="M67.69,471.87l-5.47,3.28c-1.61.96-3.56-.54-3.04-2.34l2.27-7.86c.14-.48.1-1.01-.12-1.46-.58-1.18-1.96-1.77-3.21-1.4-.49.15-.9.49-1.16.94l-4.02,7c-.93,1.63-3.38,1.26-3.8-.57l-1.43-6.28c-.36-1.56-2.3-2.16-3.43-1.03-.57.56-.9,1.38-.79,2.28l2.33,20.05c.43,3.7,4.7,5.54,7.69,3.32l16.2-12.04c.7-.52,1.06-1.26,1.11-2.02.12-1.65-1.7-2.74-3.12-1.89Z"/>
    <path class="cls-2" d="M125.63,471.87l-5.47,3.28c-1.61.96-3.56-.54-3.04-2.34l2.27-7.86c.14-.48.1-1.01-.12-1.46-.58-1.18-1.96-1.77-3.21-1.4-.49.15-.9.49-1.16.94l-4.02,7c-.93,1.63-3.38,1.26-3.8-.57l-1.43-6.28c-.36-1.56-2.3-2.16-3.43-1.03-.57.56-.9,1.38-.79,2.28l2.33,20.05c.43,3.7,4.7,5.54,7.69,3.32l16.2-12.04c.7-.52,1.06-1.26,1.11-2.02.12-1.65-1.7-2.74-3.12-1.89Z"/>
    <path class="cls-2" d="M183.58,471.87l-5.47,3.28c-1.61.96-3.56-.54-3.04-2.34l2.27-7.86c.14-.48.1-1.01-.12-1.46-.58-1.18-1.96-1.77-3.21-1.4-.49.15-.9.49-1.16.94l-4.02,7c-.93,1.63-3.38,1.26-3.8-.57l-1.43-6.28c-.36-1.56-2.3-2.16-3.43-1.03-.57.56-.9,1.38-.79,2.28l2.33,20.05c.43,3.7,4.7,5.54,7.69,3.32l16.2-12.04c.7-.52,1.06-1.26,1.11-2.02.12-1.65-1.7-2.74-3.12-1.89Z"/>
    <path class="cls-2" d="M24.23,529.48l-5.47,3.28c-1.61.96-3.56-.54-3.04-2.34l2.27-7.86c.14-.48.1-1.01-.12-1.46-.58-1.18-1.96-1.77-3.21-1.4-.49.15-.9.49-1.16.94l-4.02,7c-.93,1.63-3.38,1.26-3.8-.57l-1.43-6.28c-.36-1.56-2.3-2.16-3.43-1.03-.57.56-.9,1.38-.79,2.28l2.33,20.05c.43,3.7,4.7,5.54,7.69,3.32l16.2-12.04c.7-.52,1.06-1.26,1.11-2.02.12-1.65-1.7-2.74-3.12-1.89Z"/>
    <path class="cls-2" d="M82.17,529.48l-5.47,3.28c-1.61.96-3.56-.54-3.04-2.34l2.27-7.86c.14-.48.1-1.01-.12-1.46-.58-1.18-1.96-1.77-3.21-1.4-.49.15-.9.49-1.16.94l-4.02,7c-.93,1.63-3.38,1.26-3.8-.57l-1.43-6.28c-.36-1.56-2.3-2.16-3.43-1.03-.57.56-.9,1.38-.79,2.28l2.33,20.05c.43,3.7,4.7,5.54,7.69,3.32l16.2-12.04c.7-.52,1.06-1.26,1.11-2.02.12-1.65-1.7-2.74-3.12-1.89Z"/>
    <path class="cls-2" d="M140.12,529.48l-5.47,3.28c-1.61.96-3.56-.54-3.04-2.34l2.27-7.86c.14-.48.1-1.01-.12-1.46-.58-1.18-1.96-1.77-3.21-1.4-.49.15-.9.49-1.16.94l-4.02,7c-.93,1.63-3.38,1.26-3.8-.57l-1.43-6.28c-.36-1.56-2.3-2.16-3.43-1.03-.57.56-.9,1.38-.79,2.28l2.33,20.05c.43,3.7,4.7,5.54,7.69,3.32l16.2-12.04c.7-.52,1.06-1.26,1.11-2.02.12-1.65-1.7-2.74-3.12-1.89Z"/>
    <path class="cls-2" d="M198.06,529.48l-5.47,3.28c-1.61.96-3.56-.54-3.04-2.34l2.27-7.86c.14-.48.1-1.01-.12-1.46-.58-1.18-1.96-1.77-3.21-1.4-.49.15-.9.49-1.16.94l-4.02,7c-.93,1.63-3.38,1.26-3.8-.57l-1.43-6.28c-.36-1.56-2.3-2.16-3.43-1.03-.57.56-.9,1.38-.79,2.28l2.33,20.05c.43,3.7,4.7,5.54,7.69,3.32l16.2-12.04c.7-.52,1.06-1.26,1.11-2.02.12-1.65-1.7-2.74-3.12-1.89Z"/>
  </g>
  <g>
    <rect class="cls-1" x="201.41" y="360.91" width="173.84" height="230.46"/>
    <path class="cls-2" d="M211.97,357.61l-5.47,3.28c-1.61.96-3.56-.54-3.04-2.34l2.27-7.86c.14-.48.1-1.01-.12-1.46-.58-1.18-1.96-1.77-3.21-1.4-.49.15-.9.49-1.16.94l-4.02,7c-.93,1.63-3.38,1.26-3.8-.57l-1.43-6.28c-.36-1.56-2.3-2.16-3.43-1.03-.57.56-.9,1.38-.79,2.28l2.33,20.05c.43,3.7,4.7,5.54,7.69,3.32l16.2-12.04c.7-.52,1.06-1.26,1.11-2.02.12-1.65-1.7-2.74-3.12-1.89Z"/>
    <path class="cls-2" d="M269.91,357.61l-5.47,3.28c-1.61.96-3.56-.54-3.04-2.34l2.27-7.86c.14-.48.1-1.01-.12-1.46-.58-1.18-1.96-1.77-3.21-1.4-.49.15-.9.49-1.16.94l-4.02,7c-.93,1.63-3.38,1.26-3.8-.57l-1.43-6.28c-.36-1.56-2.3-2.16-3.43-1.03-.57.56-.9,1.38-.79,2.28l2.33,20.05c.43,3.7,4.7,5.54,7.69,3.32l16.2-12.04c.7-.52,1.06-1.26,1.11-2.02.12-1.65-1.7-2.74-3.12-1.89Z"/>
    <path class="cls-2" d="M327.86,357.61l-5.47,3.28c-1.61.96-3.56-.54-3.04-2.34l2.27-7.86c.14-.48.1-1.01-.12-1.46-.58-1.18-1.96-1.77-3.21-1.4-.49.15-.9.49-1.16.94l-4.02,7c-.93,1.63-3.38,1.26-3.8-.57l-1.43-6.28c-.36-1.56-2.3-2.16-3.43-1.03-.57.56-.9,1.38-.79,2.28l2.33,20.05c.43,3.7,4.7,5.54,7.69,3.32l16.2-12.04c.7-.52,1.06-1.26,1.11-2.02.12-1.65-1.7-2.74-3.12-1.89Z"/>
    <path class="cls-2" d="M385.8,357.61l-5.47,3.28c-1.61.96-3.56-.54-3.04-2.34l2.27-7.86c.14-.48.1-1.01-.12-1.46-.58-1.18-1.96-1.77-3.21-1.4-.49.15-.9.49-1.16.94l-4.02,7c-.93,1.63-3.38,1.26-3.8-.57l-1.43-6.28c-.36-1.56-2.3-2.16-3.43-1.03-.57.56-.9,1.38-.79,2.28l2.33,20.05c.43,3.7,4.7,5.54,7.69,3.32l16.2-12.04c.7-.52,1.06-1.26,1.11-2.02.12-1.65-1.7-2.74-3.12-1.89Z"/>
    <path class="cls-2" d="M226.45,415.22l-5.47,3.28c-1.61.96-3.56-.54-3.04-2.34l2.27-7.86c.14-.48.1-1.01-.12-1.46-.58-1.18-1.96-1.77-3.21-1.4-.49.15-.9.49-1.16.94l-4.02,7c-.93,1.63-3.38,1.26-3.8-.57l-1.43-6.28c-.36-1.56-2.3-2.16-3.43-1.03-.57.56-.9,1.38-.79,2.28l2.33,20.05c.43,3.7,4.7,5.54,7.69,3.32l16.2-12.04c.7-.52,1.06-1.26,1.11-2.02.12-1.65-1.7-2.74-3.12-1.89Z"/>
    <path class="cls-2" d="M284.4,415.22l-5.47,3.28c-1.61.96-3.56-.54-3.04-2.34l2.27-7.86c.14-.48.1-1.01-.12-1.46-.58-1.18-1.96-1.77-3.21-1.4-.49.15-.9.49-1.16.94l-4.02,7c-.93,1.63-3.38,1.26-3.8-.57l-1.43-6.28c-.36-1.56-2.3-2.16-3.43-1.03-.57.56-.9,1.38-.79,2.28l2.33,20.05c.43,3.7,4.7,5.54,7.69,3.32l16.2-12.04c.7-.52,1.06-1.26,1.11-2.02.12-1.65-1.7-2.74-3.12-1.89Z"/>
    <path class="cls-2" d="M342.34,415.22l-5.47,3.28c-1.61.96-3.56-.54-3.04-2.34l2.27-7.86c.14-.48.1-1.01-.12-1.46-.58-1.18-1.96-1.77-3.21-1.4-.49.15-.9.49-1.16.94l-4.02,7c-.93,1.63-3.38,1.26-3.8-.57l-1.43-6.28c-.36-1.56-2.3-2.16-3.43-1.03-.57.56-.9,1.38-.79,2.28l2.33,20.05c.43,3.7,4.7,5.54,7.69,3.32l16.2-12.04c.7-.52,1.06-1.26,1.11-2.02.12-1.65-1.7-2.74-3.12-1.89Z"/>
    <path class="cls-2" d="M240.94,472.83l-5.47,3.28c-1.61.96-3.56-.54-3.04-2.34l2.27-7.86c.14-.48.1-1.01-.12-1.46-.58-1.18-1.96-1.77-3.21-1.4-.49.15-.9.49-1.16.94l-4.02,7c-.93,1.63-3.38,1.26-3.8-.57l-1.43-6.28c-.36-1.56-2.3-2.16-3.43-1.03-.57.56-.9,1.38-.79,2.28l2.33,20.05c.43,3.7,4.7,5.54,7.69,3.32l16.2-12.04c.7-.52,1.06-1.26,1.11-2.02.12-1.65-1.7-2.74-3.12-1.89Z"/>
    <path class="cls-2" d="M298.88,472.83l-5.47,3.28c-1.61.96-3.56-.54-3.04-2.34l2.27-7.86c.14-.48.1-1.01-.12-1.46-.58-1.18-1.96-1.77-3.21-1.4-.49.15-.9.49-1.16.94l-4.02,7c-.93,1.63-3.38,1.26-3.8-.57l-1.43-6.28c-.36-1.56-2.3-2.16-3.43-1.03-.57.56-.9,1.38-.79,2.28l2.33,20.05c.43,3.7,4.7,5.54,7.69,3.32l16.2-12.04c.7-.52,1.06-1.26,1.11-2.02.12-1.65-1.7-2.74-3.12-1.89Z"/>
    <path class="cls-2" d="M356.83,472.83l-5.47,3.28c-1.61.96-3.56-.54-3.04-2.34l2.27-7.86c.14-.48.1-1.01-.12-1.46-.58-1.18-1.96-1.77-3.21-1.4-.49.15-.9.49-1.16.94l-4.02,7c-.93,1.63-3.38,1.26-3.8-.57l-1.43-6.28c-.36-1.56-2.3-2.16-3.43-1.03-.57.56-.9,1.38-.79,2.28l2.33,20.05c.43,3.7,4.7,5.54,7.69,3.32l16.2-12.04c.7-.52,1.06-1.26,1.11-2.02.12-1.65-1.7-2.74-3.12-1.89Z"/>
    <path class="cls-2" d="M255.43,530.45l-5.47,3.28c-1.61.96-3.56-.54-3.04-2.34l2.27-7.86c.14-.48.1-1.01-.12-1.46-.58-1.18-1.96-1.77-3.21-1.4-.49.15-.9.49-1.16.94l-4.02,7c-.93,1.63-3.38,1.26-3.8-.57l-1.43-6.28c-.36-1.56-2.3-2.16-3.43-1.03-.57.56-.9,1.38-.79,2.28l2.33,20.05c.43,3.7,4.7,5.54,7.69,3.32l16.2-12.04c.7-.52,1.06-1.26,1.11-2.02.12-1.65-1.7-2.74-3.12-1.89Z"/>
    <path class="cls-2" d="M313.37,530.45l-5.47,3.28c-1.61.96-3.56-.54-3.04-2.34l2.27-7.86c.14-.48.1-1.01-.12-1.46-.58-1.18-1.96-1.77-3.21-1.4-.49.15-.9.49-1.16.94l-4.02,7c-.93,1.63-3.38,1.26-3.8-.57l-1.43-6.28c-.36-1.56-2.3-2.16-3.43-1.03-.57.56-.9,1.38-.79,2.28l2.33,20.05c.43,3.7,4.7,5.54,7.69,3.32l16.2-12.04c.7-.52,1.06-1.26,1.11-2.02.12-1.65-1.7-2.74-3.12-1.89Z"/>
    <path class="cls-2" d="M371.32,530.45l-5.47,3.28c-1.61.96-3.56-.54-3.04-2.34l2.27-7.86c.14-.48.1-1.01-.12-1.46-.58-1.18-1.96-1.77-3.21-1.4-.49.15-.9.49-1.16.94l-4.02,7c-.93,1.63-3.38,1.26-3.8-.57l-1.43-6.28c-.36-1.56-2.3-2.16-3.43-1.03-.57.56-.9,1.38-.79,2.28l2.33,20.05c.43,3.7,4.7,5.54,7.69,3.32l16.2-12.04c.7-.52,1.06-1.26,1.11-2.02.12-1.65-1.7-2.74-3.12-1.89Z"/>
    <path class="cls-2" d="M211.97,588.06l-5.47,3.28c-1.61.96-3.56-.54-3.04-2.34l2.27-7.86c.14-.48.1-1.01-.12-1.46-.58-1.18-1.96-1.77-3.21-1.4-.49.15-.9.49-1.16.94l-4.02,7c-.93,1.63-3.38,1.26-3.8-.57l-1.43-6.28c-.36-1.56-2.3-2.16-3.43-1.03-.57.56-.9,1.38-.79,2.28l2.33,20.05c.43,3.7,4.7,5.54,7.69,3.32l16.2-12.04c.7-.52,1.06-1.26,1.11-2.02.12-1.65-1.7-2.74-3.12-1.89Z"/>
    <path class="cls-2" d="M269.91,588.06l-5.47,3.28c-1.61.96-3.56-.54-3.04-2.34l2.27-7.86c.14-.48.1-1.01-.12-1.46-.58-1.18-1.96-1.77-3.21-1.4-.49.15-.9.49-1.16.94l-4.02,7c-.93,1.63-3.38,1.26-3.8-.57l-1.43-6.28c-.36-1.56-2.3-2.16-3.43-1.03-.57.56-.9,1.38-.79,2.28l2.33,20.05c.43,3.7,4.7,5.54,7.69,3.32l16.2-12.04c.7-.52,1.06-1.26,1.11-2.02.12-1.65-1.7-2.74-3.12-1.89Z"/>
    <path class="cls-2" d="M327.86,588.06l-5.47,3.28c-1.61.96-3.56-.54-3.04-2.34l2.27-7.86c.14-.48.1-1.01-.12-1.46-.58-1.18-1.96-1.77-3.21-1.4-.49.15-.9.49-1.16.94l-4.02,7c-.93,1.63-3.38,1.26-3.8-.57l-1.43-6.28c-.36-1.56-2.3-2.16-3.43-1.03-.57.56-.9,1.38-.79,2.28l2.33,20.05c.43,3.7,4.7,5.54,7.69,3.32l16.2-12.04c.7-.52,1.06-1.26,1.11-2.02.12-1.65-1.7-2.74-3.12-1.89Z"/>
    <path class="cls-2" d="M385.8,588.06l-5.47,3.28c-1.61.96-3.56-.54-3.04-2.34l2.27-7.86c.14-.48.1-1.01-.12-1.46-.58-1.18-1.96-1.77-3.21-1.4-.49.15-.9.49-1.16.94l-4.02,7c-.93,1.63-3.38,1.26-3.8-.57l-1.43-6.28c-.36-1.56-2.3-2.16-3.43-1.03-.57.56-.9,1.38-.79,2.28l2.33,20.05c.43,3.7,4.7,5.54,7.69,3.32l16.2-12.04c.7-.52,1.06-1.26,1.11-2.02.12-1.65-1.7-2.74-3.12-1.89Z"/>
  </g>
  <g>
    <rect class="cls-1" x="415.54" y="121.55" width="173.84" height="230.46"/>
    <path class="cls-2" d="M426.09,118.24l-5.47,3.28c-1.61.96-3.56-.54-3.04-2.34l2.27-7.86c.14-.48.1-1.01-.12-1.46-.58-1.18-1.96-1.77-3.21-1.4-.49.15-.9.49-1.16.94l-4.02,7c-.93,1.63-3.38,1.26-3.8-.57l-1.43-6.28c-.36-1.56-2.3-2.16-3.43-1.03-.57.56-.9,1.38-.79,2.28l2.33,20.05c.43,3.7,4.7,5.54,7.69,3.32l16.2-12.04c.7-.52,1.06-1.26,1.11-2.02.12-1.65-1.7-2.74-3.12-1.89Z"/>
    <path class="cls-2" d="M484.03,118.24l-5.47,3.28c-1.61.96-3.56-.54-3.04-2.34l2.27-7.86c.14-.48.1-1.01-.12-1.46-.58-1.18-1.96-1.77-3.21-1.4-.49.15-.9.49-1.16.94l-4.02,7c-.93,1.63-3.38,1.26-3.8-.57l-1.43-6.28c-.36-1.56-2.3-2.16-3.43-1.03-.57.56-.9,1.38-.79,2.28l2.33,20.05c.43,3.7,4.7,5.54,7.69,3.32l16.2-12.04c.7-.52,1.06-1.26,1.11-2.02.12-1.65-1.7-2.74-3.12-1.89Z"/>
    <path class="cls-2" d="M541.98,118.24l-5.47,3.28c-1.61.96-3.56-.54-3.04-2.34l2.27-7.86c.14-.48.1-1.01-.12-1.46-.58-1.18-1.96-1.77-3.21-1.4-.49.15-.9.49-1.16.94l-4.02,7c-.93,1.63-3.38,1.26-3.8-.57l-1.43-6.28c-.36-1.56-2.3-2.16-3.43-1.03-.57.56-.9,1.38-.79,2.28l2.33,20.05c.43,3.7,4.7,5.54,7.69,3.32l16.2-12.04c.7-.52,1.06-1.26,1.11-2.02.12-1.65-1.7-2.74-3.12-1.89Z"/>
    <path class="cls-2" d="M599.92,118.24l-5.47,3.28c-1.61.96-3.56-.54-3.04-2.34l2.27-7.86c.14-.48.1-1.01-.12-1.46-.58-1.18-1.96-1.77-3.21-1.4-.49.15-.9.49-1.16.94l-4.02,7c-.93,1.63-3.38,1.26-3.8-.57l-1.43-6.28c-.36-1.56-2.3-2.16-3.43-1.03-.57.56-.9,1.38-.79,2.28l2.33,20.05c.43,3.7,4.7,5.54,7.69,3.32l16.2-12.04c.7-.52,1.06-1.26,1.11-2.02.12-1.65-1.7-2.74-3.12-1.89Z"/>
    <path class="cls-2" d="M440.57,175.85l-5.47,3.28c-1.61.96-3.56-.54-3.04-2.34l2.27-7.86c.14-.48.1-1.01-.12-1.46-.58-1.18-1.96-1.77-3.21-1.4-.49.15-.9.49-1.16.94l-4.02,7c-.93,1.63-3.38,1.26-3.8-.57l-1.43-6.28c-.36-1.56-2.3-2.16-3.43-1.03-.57.56-.9,1.38-.79,2.28l2.33,20.05c.43,3.7,4.7,5.54,7.69,3.32l16.2-12.04c.7-.52,1.06-1.26,1.11-2.02.12-1.65-1.7-2.74-3.12-1.89Z"/>
    <path class="cls-2" d="M498.52,175.85l-5.47,3.28c-1.61.96-3.56-.54-3.04-2.34l2.27-7.86c.14-.48.1-1.01-.12-1.46-.58-1.18-1.96-1.77-3.21-1.4-.49.15-.9.49-1.16.94l-4.02,7c-.93,1.63-3.38,1.26-3.8-.57l-1.43-6.28c-.36-1.56-2.3-2.16-3.43-1.03-.57.56-.9,1.38-.79,2.28l2.33,20.05c.43,3.7,4.7,5.54,7.69,3.32l16.2-12.04c.7-.52,1.06-1.26,1.11-2.02.12-1.65-1.7-2.74-3.12-1.89Z"/>
    <path class="cls-2" d="M556.46,175.85l-5.47,3.28c-1.61.96-3.56-.54-3.04-2.34l2.27-7.86c.14-.48.1-1.01-.12-1.46-.58-1.18-1.96-1.77-3.21-1.4-.49.15-.9.49-1.16.94l-4.02,7c-.93,1.63-3.38,1.26-3.8-.57l-1.43-6.28c-.36-1.56-2.3-2.16-3.43-1.03-.57.56-.9,1.38-.79,2.28l2.33,20.05c.43,3.7,4.7,5.54,7.69,3.32l16.2-12.04c.7-.52,1.06-1.26,1.11-2.02.12-1.65-1.7-2.74-3.12-1.89Z"/>
    <path class="cls-2" d="M455.06,233.47l-5.47,3.28c-1.61.96-3.56-.54-3.04-2.34l2.27-7.86c.14-.48.1-1.01-.12-1.46-.58-1.18-1.96-1.77-3.21-1.4-.49.15-.9.49-1.16.94l-4.02,7c-.93,1.63-3.38,1.26-3.8-.57l-1.43-6.28c-.36-1.56-2.3-2.16-3.43-1.03-.57.56-.9,1.38-.79,2.28l2.33,20.05c.43,3.7,4.7,5.54,7.69,3.32l16.2-12.04c.7-.52,1.06-1.26,1.11-2.02.12-1.65-1.7-2.74-3.12-1.89Z"/>
    <path class="cls-2" d="M513.01,233.47l-5.47,3.28c-1.61.96-3.56-.54-3.04-2.34l2.27-7.86c.14-.48.1-1.01-.12-1.46-.58-1.18-1.96-1.77-3.21-1.4-.49.15-.9.49-1.16.94l-4.02,7c-.93,1.63-3.38,1.26-3.8-.57l-1.43-6.28c-.36-1.56-2.3-2.16-3.43-1.03-.57.56-.9,1.38-.79,2.28l2.33,20.05c.43,3.7,4.7,5.54,7.69,3.32l16.2-12.04c.7-.52,1.06-1.26,1.11-2.02.12-1.65-1.7-2.74-3.12-1.89Z"/>
    <path class="cls-2" d="M570.95,233.47l-5.47,3.28c-1.61.96-3.56-.54-3.04-2.34l2.27-7.86c.14-.48.1-1.01-.12-1.46-.58-1.18-1.96-1.77-3.21-1.4-.49.15-.9.49-1.16.94l-4.02,7c-.93,1.63-3.38,1.26-3.8-.57l-1.43-6.28c-.36-1.56-2.3-2.16-3.43-1.03-.57.56-.9,1.38-.79,2.28l2.33,20.05c.43,3.7,4.7,5.54,7.69,3.32l16.2-12.04c.7-.52,1.06-1.26,1.11-2.02.12-1.65-1.7-2.74-3.12-1.89Z"/>
    <path class="cls-2" d="M469.55,291.08l-5.47,3.28c-1.61.96-3.56-.54-3.04-2.34l2.27-7.86c.14-.48.1-1.01-.12-1.46-.58-1.18-1.96-1.77-3.21-1.4-.49.15-.9.49-1.16.94l-4.02,7c-.93,1.63-3.38,1.26-3.8-.57l-1.43-6.28c-.36-1.56-2.3-2.16-3.43-1.03-.57.56-.9,1.38-.79,2.28l2.33,20.05c.43,3.7,4.7,5.54,7.69,3.32l16.2-12.04c.7-.52,1.06-1.26,1.11-2.02.12-1.65-1.7-2.74-3.12-1.89Z"/>
    <path class="cls-2" d="M527.49,291.08l-5.47,3.28c-1.61.96-3.56-.54-3.04-2.34l2.27-7.86c.14-.48.1-1.01-.12-1.46-.58-1.18-1.96-1.77-3.21-1.4-.49.15-.9.49-1.16.94l-4.02,7c-.93,1.63-3.38,1.26-3.8-.57l-1.43-6.28c-.36-1.56-2.3-2.16-3.43-1.03-.57.56-.9,1.38-.79,2.28l2.33,20.05c.43,3.7,4.7,5.54,7.69,3.32l16.2-12.04c.7-.52,1.06-1.26,1.11-2.02.12-1.65-1.7-2.74-3.12-1.89Z"/>
    <path class="cls-2" d="M585.44,291.08l-5.47,3.28c-1.61.96-3.56-.54-3.04-2.34l2.27-7.86c.14-.48.1-1.01-.12-1.46-.58-1.18-1.96-1.77-3.21-1.4-.49.15-.9.49-1.16.94l-4.02,7c-.93,1.63-3.38,1.26-3.8-.57l-1.43-6.28c-.36-1.56-2.3-2.16-3.43-1.03-.57.56-.9,1.38-.79,2.28l2.33,20.05c.43,3.7,4.7,5.54,7.69,3.32l16.2-12.04c.7-.52,1.06-1.26,1.11-2.02.12-1.65-1.7-2.74-3.12-1.89Z"/>
    <path class="cls-2" d="M426.09,348.69l-5.47,3.28c-1.61.96-3.56-.54-3.04-2.34l2.27-7.86c.14-.48.1-1.01-.12-1.46-.58-1.18-1.96-1.77-3.21-1.4-.49.15-.9.49-1.16.94l-4.02,7c-.93,1.63-3.38,1.26-3.8-.57l-1.43-6.28c-.36-1.56-2.3-2.16-3.43-1.03-.57.56-.9,1.38-.79,2.28l2.33,20.05c.43,3.7,4.7,5.54,7.69,3.32l16.2-12.04c.7-.52,1.06-1.26,1.11-2.02.12-1.65-1.7-2.74-3.12-1.89Z"/>
    <path class="cls-2" d="M484.03,348.69l-5.47,3.28c-1.61.96-3.56-.54-3.04-2.34l2.27-7.86c.14-.48.1-1.01-.12-1.46-.58-1.18-1.96-1.77-3.21-1.4-.49.15-.9.49-1.16.94l-4.02,7c-.93,1.63-3.38,1.26-3.8-.57l-1.43-6.28c-.36-1.56-2.3-2.16-3.43-1.03-.57.56-.9,1.38-.79,2.28l2.33,20.05c.43,3.7,4.7,5.54,7.69,3.32l16.2-12.04c.7-.52,1.06-1.26,1.11-2.02.12-1.65-1.7-2.74-3.12-1.89Z"/>
    <path class="cls-2" d="M541.98,348.69l-5.47,3.28c-1.61.96-3.56-.54-3.04-2.34l2.27-7.86c.14-.48.1-1.01-.12-1.46-.58-1.18-1.96-1.77-3.21-1.4-.49.15-.9.49-1.16.94l-4.02,7c-.93,1.63-3.38,1.26-3.8-.57l-1.43-6.28c-.36-1.56-2.3-2.16-3.43-1.03-.57.56-.9,1.38-.79,2.28l2.33,20.05c.43,3.7,4.7,5.54,7.69,3.32l16.2-12.04c.7-.52,1.06-1.26,1.11-2.02.12-1.65-1.7-2.74-3.12-1.89Z"/>
    <path class="cls-2" d="M599.92,348.69l-5.47,3.28c-1.61.96-3.56-.54-3.04-2.34l2.27-7.86c.14-.48.1-1.01-.12-1.46-.58-1.18-1.96-1.77-3.21-1.4-.49.15-.9.49-1.16.94l-4.02,7c-.93,1.63-3.38,1.26-3.8-.57l-1.43-6.28c-.36-1.56-2.3-2.16-3.43-1.03-.57.56-.9,1.38-.79,2.28l2.33,20.05c.43,3.7,4.7,5.54,7.69,3.32l16.2-12.04c.7-.52,1.06-1.26,1.11-2.02.12-1.65-1.7-2.74-3.12-1.89Z"/>
  </g>
  <g>
    <rect class="cls-1" x="377.56" y="404.7" width="173.84" height="230.46"/>
    <path class="cls-2" d="M388.11,401.39l-5.47,3.28c-1.61.96-3.56-.54-3.04-2.34l2.27-7.86c.14-.48.1-1.01-.12-1.46-.58-1.18-1.96-1.77-3.21-1.4-.49.15-.9.49-1.16.94l-4.02,7c-.93,1.63-3.38,1.26-3.8-.57l-1.43-6.28c-.36-1.56-2.3-2.16-3.43-1.03-.57.56-.9,1.38-.79,2.28l2.33,20.05c.43,3.7,4.7,5.54,7.69,3.32l16.2-12.04c.7-.52,1.06-1.26,1.11-2.02.12-1.65-1.7-2.74-3.12-1.89Z"/>
    <path class="cls-2" d="M446.05,401.39l-5.47,3.28c-1.61.96-3.56-.54-3.04-2.34l2.27-7.86c.14-.48.1-1.01-.12-1.46-.58-1.18-1.96-1.77-3.21-1.4-.49.15-.9.49-1.16.94l-4.02,7c-.93,1.63-3.38,1.26-3.8-.57l-1.43-6.28c-.36-1.56-2.3-2.16-3.43-1.03-.57.56-.9,1.38-.79,2.28l2.33,20.05c.43,3.7,4.7,5.54,7.69,3.32l16.2-12.04c.7-.52,1.06-1.26,1.11-2.02.12-1.65-1.7-2.74-3.12-1.89Z"/>
    <path class="cls-2" d="M504,401.39l-5.47,3.28c-1.61.96-3.56-.54-3.04-2.34l2.27-7.86c.14-.48.1-1.01-.12-1.46-.58-1.18-1.96-1.77-3.21-1.4-.49.15-.9.49-1.16.94l-4.02,7c-.93,1.63-3.38,1.26-3.8-.57l-1.43-6.28c-.36-1.56-2.3-2.16-3.43-1.03-.57.56-.9,1.38-.79,2.28l2.33,20.05c.43,3.7,4.7,5.54,7.69,3.32l16.2-12.04c.7-.52,1.06-1.26,1.11-2.02.12-1.65-1.7-2.74-3.12-1.89Z"/>
    <path class="cls-2" d="M561.94,401.39l-5.47,3.28c-1.61.96-3.56-.54-3.04-2.34l2.27-7.86c.14-.48.1-1.01-.12-1.46-.58-1.18-1.96-1.77-3.21-1.4-.49.15-.9.49-1.16.94l-4.02,7c-.93,1.63-3.38,1.26-3.8-.57l-1.43-6.28c-.36-1.56-2.3-2.16-3.43-1.03-.57.56-.9,1.38-.79,2.28l2.33,20.05c.43,3.7,4.7,5.54,7.69,3.32l16.2-12.04c.7-.52,1.06-1.26,1.11-2.02.12-1.65-1.7-2.74-3.12-1.89Z"/>
    <path class="cls-2" d="M402.59,459.01l-5.47,3.28c-1.61.96-3.56-.54-3.04-2.34l2.27-7.86c.14-.48.1-1.01-.12-1.46-.58-1.18-1.96-1.77-3.21-1.4-.49.15-.9.49-1.16.94l-4.02,7c-.93,1.63-3.38,1.26-3.8-.57l-1.43-6.28c-.36-1.56-2.3-2.16-3.43-1.03-.57.56-.9,1.38-.79,2.28l2.33,20.05c.43,3.7,4.7,5.54,7.69,3.32l16.2-12.04c.7-.52,1.06-1.26,1.11-2.02.12-1.65-1.7-2.74-3.12-1.89Z"/>
    <path class="cls-2" d="M460.54,459.01l-5.47,3.28c-1.61.96-3.56-.54-3.04-2.34l2.27-7.86c.14-.48.1-1.01-.12-1.46-.58-1.18-1.96-1.77-3.21-1.4-.49.15-.9.49-1.16.94l-4.02,7c-.93,1.63-3.38,1.26-3.8-.57l-1.43-6.28c-.36-1.56-2.3-2.16-3.43-1.03-.57.56-.9,1.38-.79,2.28l2.33,20.05c.43,3.7,4.7,5.54,7.69,3.32l16.2-12.04c.7-.52,1.06-1.26,1.11-2.02.12-1.65-1.7-2.74-3.12-1.89Z"/>
    <path class="cls-2" d="M518.48,459.01l-5.47,3.28c-1.61.96-3.56-.54-3.04-2.34l2.27-7.86c.14-.48.1-1.01-.12-1.46-.58-1.18-1.96-1.77-3.21-1.4-.49.15-.9.49-1.16.94l-4.02,7c-.93,1.63-3.38,1.26-3.8-.57l-1.43-6.28c-.36-1.56-2.3-2.16-3.43-1.03-.57.56-.9,1.38-.79,2.28l2.33,20.05c.43,3.7,4.7,5.54,7.69,3.32l16.2-12.04c.7-.52,1.06-1.26,1.11-2.02.12-1.65-1.7-2.74-3.12-1.89Z"/>
    <path class="cls-2" d="M417.08,516.62l-5.47,3.28c-1.61.96-3.56-.54-3.04-2.34l2.27-7.86c.14-.48.1-1.01-.12-1.46-.58-1.18-1.96-1.77-3.21-1.4-.49.15-.9.49-1.16.94l-4.02,7c-.93,1.63-3.38,1.26-3.8-.57l-1.43-6.28c-.36-1.56-2.3-2.16-3.43-1.03-.57.56-.9,1.38-.79,2.28l2.33,20.05c.43,3.7,4.7,5.54,7.69,3.32l16.2-12.04c.7-.52,1.06-1.26,1.11-2.02.12-1.65-1.7-2.74-3.12-1.89Z"/>
    <path class="cls-2" d="M475.03,516.62l-5.47,3.28c-1.61.96-3.56-.54-3.04-2.34l2.27-7.86c.14-.48.1-1.01-.12-1.46-.58-1.18-1.96-1.77-3.21-1.4-.49.15-.9.49-1.16.94l-4.02,7c-.93,1.63-3.38,1.26-3.8-.57l-1.43-6.28c-.36-1.56-2.3-2.16-3.43-1.03-.57.56-.9,1.38-.79,2.28l2.33,20.05c.43,3.7,4.7,5.54,7.69,3.32l16.2-12.04c.7-.52,1.06-1.26,1.11-2.02.12-1.65-1.7-2.74-3.12-1.89Z"/>
    <path class="cls-2" d="M532.97,516.62l-5.47,3.28c-1.61.96-3.56-.54-3.04-2.34l2.27-7.86c.14-.48.1-1.01-.12-1.46-.58-1.18-1.96-1.77-3.21-1.4-.49.15-.9.49-1.16.94l-4.02,7c-.93,1.63-3.38,1.26-3.8-.57l-1.43-6.28c-.36-1.56-2.3-2.16-3.43-1.03-.57.56-.9,1.38-.79,2.28l2.33,20.05c.43,3.7,4.7,5.54,7.69,3.32l16.2-12.04c.7-.52,1.06-1.26,1.11-2.02.12-1.65-1.7-2.74-3.12-1.89Z"/>
    <path class="cls-2" d="M431.57,574.23l-5.47,3.28c-1.61.96-3.56-.54-3.04-2.34l2.27-7.86c.14-.48.1-1.01-.12-1.46-.58-1.18-1.96-1.77-3.21-1.4-.49.15-.9.49-1.16.94l-4.02,7c-.93,1.63-3.38,1.26-3.8-.57l-1.43-6.28c-.36-1.56-2.3-2.16-3.43-1.03-.57.56-.9,1.38-.79,2.28l2.33,20.05c.43,3.7,4.7,5.54,7.69,3.32l16.2-12.04c.7-.52,1.06-1.26,1.11-2.02.12-1.65-1.7-2.74-3.12-1.89Z"/>
    <path class="cls-2" d="M489.51,574.23l-5.47,3.28c-1.61.96-3.56-.54-3.04-2.34l2.27-7.86c.14-.48.1-1.01-.12-1.46-.58-1.18-1.96-1.77-3.21-1.4-.49.15-.9.49-1.16.94l-4.02,7c-.93,1.63-3.38,1.26-3.8-.57l-1.43-6.28c-.36-1.56-2.3-2.16-3.43-1.03-.57.56-.9,1.38-.79,2.28l2.33,20.05c.43,3.7,4.7,5.54,7.69,3.32l16.2-12.04c.7-.52,1.06-1.26,1.11-2.02.12-1.65-1.7-2.74-3.12-1.89Z"/>
    <path class="cls-2" d="M547.46,574.23l-5.47,3.28c-1.61.96-3.56-.54-3.04-2.34l2.27-7.86c.14-.48.1-1.01-.12-1.46-.58-1.18-1.96-1.77-3.21-1.4-.49.15-.9.49-1.16.94l-4.02,7c-.93,1.63-3.38,1.26-3.8-.57l-1.43-6.28c-.36-1.56-2.3-2.16-3.43-1.03-.57.56-.9,1.38-.79,2.28l2.33,20.05c.43,3.7,4.7,5.54,7.69,3.32l16.2-12.04c.7-.52,1.06-1.26,1.11-2.02.12-1.65-1.7-2.74-3.12-1.89Z"/>
    <path class="cls-2" d="M388.11,631.85l-5.47,3.28c-1.61.96-3.56-.54-3.04-2.34l2.27-7.86c.14-.48.1-1.01-.12-1.46-.58-1.18-1.96-1.77-3.21-1.4-.49.15-.9.49-1.16.94l-4.02,7c-.93,1.63-3.38,1.26-3.8-.57l-1.43-6.28c-.36-1.56-2.3-2.16-3.43-1.03-.57.56-.9,1.38-.79,2.28l2.33,20.05c.43,3.7,4.7,5.54,7.69,3.32l16.2-12.04c.7-.52,1.06-1.26,1.11-2.02.12-1.65-1.7-2.74-3.12-1.89Z"/>
    <path class="cls-2" d="M446.05,631.85l-5.47,3.28c-1.61.96-3.56-.54-3.04-2.34l2.27-7.86c.14-.48.1-1.01-.12-1.46-.58-1.18-1.96-1.77-3.21-1.4-.49.15-.9.49-1.16.94l-4.02,7c-.93,1.63-3.38,1.26-3.8-.57l-1.43-6.28c-.36-1.56-2.3-2.16-3.43-1.03-.57.56-.9,1.38-.79,2.28l2.33,20.05c.43,3.7,4.7,5.54,7.69,3.32l16.2-12.04c.7-.52,1.06-1.26,1.11-2.02.12-1.65-1.7-2.74-3.12-1.89Z"/>
    <path class="cls-2" d="M504,631.85l-5.47,3.28c-1.61.96-3.56-.54-3.04-2.34l2.27-7.86c.14-.48.1-1.01-.12-1.46-.58-1.18-1.96-1.77-3.21-1.4-.49.15-.9.49-1.16.94l-4.02,7c-.93,1.63-3.38,1.26-3.8-.57l-1.43-6.28c-.36-1.56-2.3-2.16-3.43-1.03-.57.56-.9,1.38-.79,2.28l2.33,20.05c.43,3.7,4.7,5.54,7.69,3.32l16.2-12.04c.7-.52,1.06-1.26,1.11-2.02.12-1.65-1.7-2.74-3.12-1.89Z"/>
    <path class="cls-2" d="M561.94,631.85l-5.47,3.28c-1.61.96-3.56-.54-3.04-2.34l2.27-7.86c.14-.48.1-1.01-.12-1.46-.58-1.18-1.96-1.77-3.21-1.4-.49.15-.9.49-1.16.94l-4.02,7c-.93,1.63-3.38,1.26-3.8-.57l-1.43-6.28c-.36-1.56-2.3-2.16-3.43-1.03-.57.56-.9,1.38-.79,2.28l2.33,20.05c.43,3.7,4.7,5.54,7.69,3.32l16.2-12.04c.7-.52,1.06-1.26,1.11-2.02.12-1.65-1.7-2.74-3.12-1.89Z"/>
  </g>
</svg>